<svg width="445" height="116" viewBox="0 0 445 116" fill="none" xmlns="http://www.w3.org/2000/svg">
<path d="M0 3C0 1.34315 1.34315 0 3 0H35.6667C37.3235 0 38.6667 1.34315 38.6667 3V35.6666C38.6667 37.3235 37.3235 38.6666 35.6667 38.6666H3C1.34315 38.6666 0 37.3235 0 35.6666V3Z" fill="#2B2D30"/>
<path d="M116 100.533C116 109.075 109.075 116 100.533 116H3C1.34315 116 0 114.657 0 113V80.3335C0 78.6766 1.34315 77.3335 3 77.3335H74.3333C75.9902 77.3335 77.3333 75.9903 77.3333 74.3335V3C77.3333 1.34315 78.6765 0 80.3333 0H113C114.657 0 116 1.34315 116 3V100.533Z" fill="#2B2D30"/>
<path d="M172.578 93H161.375L186.5 23.1562H198.688L223.766 93H212.609L192.828 35.8594H192.266L172.578 93ZM174.453 65.6719H210.688V74.4844H174.453V65.6719ZM262.156 71.3438V40.5938H272.281V93H262.344V83.9062H261.781C260.531 86.6875 258.594 89.0156 255.969 90.8906C253.344 92.7656 250.062 93.6875 246.125 93.6562C242.75 93.6562 239.766 92.9219 237.172 91.4531C234.609 89.9844 232.594 87.7812 231.125 84.8438C229.688 81.9062 228.969 78.2656 228.969 73.9219V40.5938H239.094V72.75C239.094 76.2812 240.094 79.1094 242.094 81.2344C244.094 83.3594 246.672 84.4062 249.828 84.375C251.734 84.375 253.625 83.9062 255.5 82.9688C257.406 82.0312 258.984 80.5938 260.234 78.6562C261.516 76.7188 262.156 74.2812 262.156 71.3438ZM282.031 93V40.5938H291.828V48.9844H292.391C293.359 46.1719 295.047 43.9531 297.453 42.3281C299.891 40.6719 302.641 39.8438 305.703 39.8438C306.328 39.8438 307.062 39.875 307.906 39.9375C308.781 39.9688 309.484 40.0156 310.016 40.0781V49.8281C309.609 49.7031 308.875 49.5781 307.812 49.4531C306.781 49.3281 305.734 49.2656 304.672 49.2656C302.266 49.2656 300.109 49.7812 298.203 50.8125C296.328 51.8125 294.844 53.2031 293.75 54.9844C292.688 56.7344 292.156 58.7656 292.156 61.0781V93H282.031ZM348.125 71.3438V40.5938H358.25V93H348.312V83.9062H347.75C346.5 86.6875 344.562 89.0156 341.938 90.8906C339.312 92.7656 336.031 93.6875 332.094 93.6562C328.719 93.6562 325.734 92.9219 323.141 91.4531C320.578 89.9844 318.562 87.7812 317.094 84.8438C315.656 81.9062 314.938 78.2656 314.938 73.9219V40.5938H325.062V72.75C325.062 76.2812 326.062 79.1094 328.062 81.2344C330.062 83.3594 332.641 84.4062 335.797 84.375C337.703 84.375 339.594 83.9062 341.469 82.9688C343.375 82.0312 344.953 80.5938 346.203 78.6562C347.484 76.7188 348.125 74.2812 348.125 71.3438ZM368 93V40.5938H377.703V49.2188H378.406C379.5 46.3125 381.281 44.0469 383.75 42.4219C386.25 40.7656 389.219 39.9375 392.656 39.9375C396.156 39.9375 399.078 40.7656 401.422 42.4219C403.797 44.0469 405.562 46.3125 406.719 49.2188H407.281C408.531 46.375 410.516 44.125 413.234 42.4688C415.953 40.7812 419.188 39.9375 422.938 39.9375C427.688 39.9375 431.578 41.4375 434.609 44.4375C437.641 47.4062 439.156 51.8906 439.156 57.8906V93H428.938V58.8281C428.938 55.2656 427.969 52.7031 426.031 51.1406C424.094 49.5469 421.781 48.75 419.094 48.75C415.781 48.75 413.203 49.7812 411.359 51.8438C409.547 53.875 408.641 56.4531 408.641 59.5781V93H398.422V58.1719C398.422 55.3281 397.547 53.0469 395.797 51.3281C394.047 49.6094 391.75 48.75 388.906 48.75C386.969 48.75 385.172 49.2656 383.516 50.2969C381.891 51.2969 380.578 52.7031 379.578 54.5156C378.609 56.2969 378.125 58.3594 378.125 60.7031V93H368Z" fill="#2B2D30"/>
</svg>
